<svg width="510" height="438" viewBox="0 0 510 438" fill="none" xmlns="http://www.w3.org/2000/svg">
<path fill-rule="evenodd" clip-rule="evenodd" d="M44.9215 142.033C61.0199 138.232 73 123.77 73 106.51C73 86.3514 56.6584 70.0098 36.5 70.0098C16.3416 70.0098 0 86.3514 0 106.51C0 124.191 12.5727 138.937 29.2658 142.293L34.5673 149.639C35.7648 151.298 38.2352 151.298 39.4327 149.639L44.9215 142.033Z" fill="#FFCED0"/>
<path fill-rule="evenodd" clip-rule="evenodd" d="M481.921 385.033C498.02 381.232 510 366.77 510 349.51C510 329.351 493.658 313.01 473.5 313.01C453.342 313.01 437 329.351 437 349.51C437 367.191 449.573 381.937 466.266 385.293L471.567 392.639C472.765 394.298 475.235 394.298 476.433 392.639L481.921 385.033Z" fill="#FFCED0"/>
<path fill-rule="evenodd" clip-rule="evenodd" d="M255.768 235.966C269.661 232.684 280 220.204 280 205.308C280 187.911 265.897 173.808 248.5 173.808C231.103 173.808 217 187.911 217 205.308C217 220.568 227.85 233.293 242.257 236.189L246.499 242.068C247.696 243.727 250.167 243.727 251.364 242.068L255.768 235.966Z" fill="#FFCED0"/>
<path fill-rule="evenodd" clip-rule="evenodd" d="M459.614 78.63C477.035 74.5155 490 58.8651 490 40.1865C490 18.3713 472.315 0.686523 450.5 0.686523C428.685 0.686523 411 18.3713 411 40.1865C411 59.3214 424.606 75.2785 442.671 78.9108L448.608 87.1377C449.806 88.7968 452.276 88.7968 453.474 87.1376L459.614 78.63Z" fill="#FFCED0"/>
<path fill-rule="evenodd" clip-rule="evenodd" d="M107.614 427.953C125.035 423.839 138 408.188 138 389.51C138 367.695 120.315 350.01 98.5 350.01C76.6848 350.01 59 367.695 59 389.51C59 408.645 72.606 424.602 90.6712 428.234L96.6084 436.461C97.8058 438.12 100.276 438.12 101.474 436.461L107.614 427.953Z" fill="#FFCED0"/>
<path d="M23 233.687C20.8783 233.687 18.8434 234.514 17.3432 235.988C15.8428 237.462 15 239.461 15 241.545C15 247.532 22.2727 253.29 22.549 253.533C22.6774 253.632 22.8363 253.687 23 253.687C23.1637 253.687 23.3226 253.632 23.451 253.533C23.7636 253.29 31 247.532 31 241.545C31 239.461 30.1572 237.462 28.6568 235.988C27.1565 234.514 25.1218 233.687 23 233.687H23ZM23 245.831C21.8427 245.831 20.7328 245.38 19.9145 244.576C19.0962 243.772 18.6365 242.682 18.6365 241.545C18.6365 240.408 19.0962 239.318 19.9145 238.514C20.7329 237.71 21.8427 237.259 23 237.259C24.1573 237.259 25.2672 237.71 26.0856 238.514C26.9039 239.318 27.3636 240.408 27.3636 241.545C27.3636 242.682 26.9039 243.772 26.0856 244.576C25.2672 245.38 24.1573 245.831 23 245.831ZM25.9091 241.545C25.9091 242.303 25.6026 243.03 25.057 243.565C24.5115 244.101 23.7716 244.403 23 244.403C22.2285 244.403 21.4885 244.101 20.9431 243.565C20.3975 243.03 20.091 242.303 20.091 241.545C20.091 240.787 20.3975 240.06 20.9431 239.524C21.4885 238.988 22.2285 238.687 23 238.687C23.7716 238.687 24.5115 238.988 25.057 239.524C25.6026 240.06 25.9091 240.787 25.9091 241.545Z" fill="#FD5056"/>
<path d="M251 71.6865C248.878 71.6865 246.843 72.5145 245.343 73.9882C243.843 75.462 243 77.4607 243 79.545C243 85.5317 250.273 91.2897 250.549 91.5326C250.677 91.6323 250.836 91.6865 251 91.6865C251.164 91.6865 251.323 91.6323 251.451 91.5326C251.764 91.2898 259 85.5317 259 79.545C259 77.4608 258.157 75.4619 256.657 73.9882C255.157 72.5145 253.122 71.6865 251 71.6865H251ZM251 83.8313C249.843 83.8313 248.733 83.3797 247.915 82.5758C247.096 81.772 246.636 80.6817 246.636 79.5449C246.636 78.4081 247.096 77.3178 247.915 76.514C248.733 75.7101 249.843 75.2585 251 75.2585C252.157 75.2585 253.267 75.7101 254.086 76.514C254.904 77.3179 255.364 78.4081 255.364 79.5449C255.364 80.6817 254.904 81.772 254.086 82.5758C253.267 83.3797 252.157 83.8313 251 83.8313ZM253.909 79.5449C253.909 80.3028 253.603 81.0297 253.057 81.5655C252.512 82.1014 251.772 82.4025 251 82.4025C250.228 82.4025 249.489 82.1014 248.943 81.5655C248.397 81.0297 248.091 80.3028 248.091 79.5449C248.091 78.787 248.397 78.0601 248.943 77.5243C249.489 76.9884 250.228 76.6873 251 76.6873C251.772 76.6873 252.512 76.9884 253.057 77.5243C253.603 78.0601 253.909 78.787 253.909 79.5449Z" fill="#4141A5"/>
<path d="M444 259.687C441.878 259.687 439.843 260.514 438.343 261.988C436.843 263.462 436 265.461 436 267.545C436 273.532 443.273 279.29 443.549 279.533C443.677 279.632 443.836 279.687 444 279.687C444.164 279.687 444.323 279.632 444.451 279.533C444.764 279.29 452 273.532 452 267.545C452 265.461 451.157 263.462 449.657 261.988C448.157 260.514 446.122 259.687 444 259.687H444ZM444 271.831C442.843 271.831 441.733 271.38 440.915 270.576C440.096 269.772 439.636 268.682 439.636 267.545C439.636 266.408 440.096 265.318 440.915 264.514C441.733 263.71 442.843 263.259 444 263.259C445.157 263.259 446.267 263.71 447.086 264.514C447.904 265.318 448.364 266.408 448.364 267.545C448.364 268.682 447.904 269.772 447.086 270.576C446.267 271.38 445.157 271.831 444 271.831ZM446.909 267.545C446.909 268.303 446.603 269.03 446.057 269.565C445.512 270.101 444.772 270.403 444 270.403C443.228 270.403 442.489 270.101 441.943 269.565C441.397 269.03 441.091 268.303 441.091 267.545C441.091 266.787 441.397 266.06 441.943 265.524C442.489 264.988 443.228 264.687 444 264.687C444.772 264.687 445.512 264.988 446.057 265.524C446.603 266.06 446.909 266.787 446.909 267.545Z" fill="#72AED4"/>
</svg>
