<svg width="182" height="70" viewBox="0 0 182 70" fill="none" xmlns="http://www.w3.org/2000/svg">
<path d="M18.3462 41.0726C17.722 40.4017 17.0658 39.8827 16.3778 39.5156C15.6899 39.1359 15.0528 38.8637 14.4668 38.6992C13.8807 38.522 13.3902 38.4207 12.9953 38.3954C12.6003 38.3574 12.3773 38.3384 12.3264 38.3384C11.6894 38.3384 11.1734 38.4207 10.7784 38.5853C10.3835 38.7372 10.0713 38.9397 9.84199 39.1929C9.62541 39.4334 9.47252 39.7118 9.38334 40.0283C9.30689 40.3321 9.26867 40.6422 9.26867 40.9587C9.26867 41.2625 9.30052 41.5789 9.36423 41.908C9.44067 42.2372 9.5617 42.541 9.72733 42.8194C9.89295 43.0853 10.1159 43.3068 10.3962 43.484C10.6765 43.6612 11.0332 43.7498 11.4664 43.7498C11.4919 43.7498 11.5938 43.7498 11.7722 43.7498C11.9505 43.7372 12.1735 43.6865 12.441 43.5979C12.7086 43.4966 13.0016 43.3321 13.3201 43.1042C13.6514 42.8637 13.9826 42.522 14.3139 42.0789V49.8068C14.0463 49.3258 13.7533 48.946 13.4348 48.6675C13.1163 48.3891 12.8105 48.1865 12.5175 48.0599C12.2372 47.9207 11.9824 47.8384 11.7531 47.8131C11.5365 47.7751 11.39 47.7561 11.3135 47.7561C10.8931 47.7561 10.5427 47.8258 10.2624 47.965C9.99488 48.1042 9.77829 48.3004 9.61267 48.5536C9.45978 48.7941 9.35149 49.0916 9.28778 49.446C9.22408 49.7878 9.19223 50.1675 9.19223 50.5853C9.23045 51.5599 9.326 52.5663 9.47889 53.6042C9.54259 54.0473 9.62541 54.5156 9.72733 55.0093C9.82925 55.503 9.95666 56.0156 10.1095 56.5473C10.2624 57.0663 10.4408 57.5916 10.6446 58.1232C10.8485 58.6422 11.0842 59.1549 11.3517 59.6612C11.0714 59.6485 10.7657 59.6296 10.4344 59.6042C10.1414 59.5789 9.7974 59.5599 9.40245 59.5473C9.02024 59.5346 8.58706 59.5283 8.10292 59.5283C7.5296 59.5283 6.90532 59.5473 6.23008 59.5853C5.55483 59.6106 4.86685 59.6612 4.16613 59.7372C3.4654 59.8131 2.75831 59.9144 2.04484 60.041C1.33138 60.1802 0.649763 60.3511 0 60.5536C0.28029 59.984 0.522358 59.2625 0.726205 58.3891C0.930052 57.5156 1.09568 56.5853 1.22308 55.5979C1.36323 54.6106 1.47152 53.6042 1.54796 52.5789C1.62441 51.5536 1.68174 50.6042 1.71996 49.7308C1.75818 48.8447 1.77729 48.0789 1.77729 47.4334C1.79003 46.7751 1.7964 46.3258 1.7964 46.0853C1.7964 46.0346 1.79003 45.8384 1.77729 45.4966C1.77729 45.1549 1.77092 44.7118 1.75818 44.1675C1.74544 43.6232 1.72633 43.003 1.70085 42.3068C1.67537 41.5979 1.63715 40.8637 1.58619 40.1042C1.54796 39.3448 1.49063 38.5789 1.41419 37.8068C1.35049 37.0346 1.26767 36.3068 1.16575 35.6232C1.07657 34.927 0.968274 34.3068 0.840869 33.7625C0.726205 33.2055 0.58606 32.7625 0.420435 32.4334C1.64352 32.6865 2.88571 32.8701 4.14701 32.984C5.42106 33.0853 6.67599 33.1359 7.91182 33.1359C9.326 33.1359 10.6638 33.0916 11.9251 33.003C13.1864 32.9017 14.2948 32.7878 15.2503 32.6612C16.3715 32.522 17.4034 32.3574 18.3462 32.1675V41.0726Z" fill="#1A093F"/>
<path d="M28.4176 59.8891C28.201 59.8764 27.9462 59.8574 27.6531 59.8321C27.3983 59.8194 27.0926 59.8068 26.7358 59.7941C26.3918 59.7815 25.9969 59.7751 25.551 59.7751C24.7228 59.7751 23.7673 59.8131 22.6844 59.8891C21.6142 59.9523 20.4484 60.0789 19.1871 60.2688C19.3655 59.9144 19.5247 59.427 19.6649 58.8068C19.805 58.1739 19.9261 57.465 20.028 56.6802C20.1299 55.8827 20.2127 55.041 20.2764 54.1549C20.3529 53.2561 20.4102 52.3574 20.4484 51.4587C20.4994 50.5599 20.5312 49.6929 20.544 48.8574C20.5694 48.0093 20.5886 47.2498 20.6013 46.5789C20.614 45.8954 20.6204 45.3194 20.6204 44.8511C20.6204 44.3827 20.6204 44.0789 20.6204 43.9397C20.5949 41.8258 20.5376 39.8637 20.4484 38.0536C20.4102 37.2941 20.3656 36.5283 20.3146 35.7561C20.2637 34.984 20.2 34.2625 20.1235 33.5916C20.0471 32.9207 19.9579 32.3321 19.856 31.8258C19.7668 31.3194 19.6585 30.9397 19.5311 30.6865C20.5631 30.8637 21.5186 30.984 22.3977 31.0473C23.2768 31.1106 24.0667 31.1422 24.7674 31.1422C25.2261 31.1422 25.6401 31.1359 26.0096 31.1232C26.3791 31.0979 26.6912 31.0726 26.946 31.0473C27.2518 31.022 27.5194 30.9903 27.7487 30.9523C27.634 31.522 27.5257 32.2435 27.4238 33.1169C27.3346 33.9903 27.2518 34.9713 27.1754 36.0599C27.1117 37.1485 27.0607 38.3194 27.0225 39.5726C26.9843 40.8258 26.9652 42.1169 26.9652 43.446C26.9652 44.965 26.9906 46.4966 27.0416 48.041C27.0926 49.5853 27.1754 51.0789 27.29 52.522C27.4047 53.965 27.5512 55.3194 27.7296 56.5853C27.9207 57.8384 28.15 58.9397 28.4176 59.8891Z" fill="#1A093F"/>
<path d="M48.6366 38.1485C48.4965 38.6802 48.3755 39.3194 48.2735 40.0663C48.1844 40.8131 48.1015 41.6169 48.0251 42.4777C47.9487 43.3384 47.885 44.2372 47.834 45.1739C47.7958 46.1106 47.7576 47.022 47.7193 47.908C47.6429 49.9966 47.5983 52.1992 47.5856 54.5156C47.5856 55.8068 47.5027 57.0789 47.3371 58.3321C47.1842 59.5853 46.9294 60.7688 46.5727 61.8827C46.2287 63.0093 45.7764 64.0473 45.2158 64.9966C44.668 65.9587 43.9928 66.7815 43.1901 67.465C42.4002 68.1612 41.4765 68.7055 40.4191 69.0979C39.3743 69.4903 38.1895 69.6865 36.8645 69.6865C35.6287 69.6865 34.5585 69.5599 33.6539 69.3068C32.7493 69.0536 31.9976 68.6929 31.3988 68.2245C30.8128 67.7688 30.3732 67.2182 30.0802 66.5726C29.7999 65.927 29.6598 65.2182 29.6598 64.446C29.6598 63.6739 29.7935 62.9713 30.0611 62.3384C30.3286 61.7182 30.679 61.1929 31.1122 60.7625C31.5453 60.3321 32.0358 60.003 32.5837 59.7751C33.1315 59.5346 33.6857 59.4144 34.2463 59.4144C34.9598 59.4144 35.635 59.6169 36.272 60.022C36.9091 60.427 37.3932 61.0663 37.7245 61.9397C37.648 61.8764 37.5588 61.8321 37.4569 61.8068C37.3677 61.7941 37.2722 61.7878 37.1702 61.7878C37.0301 61.7878 36.8836 61.8194 36.7307 61.8827C36.5906 61.946 36.4632 62.0346 36.3485 62.1485C36.2338 62.2625 36.1383 62.3891 36.0618 62.5283C35.9981 62.6802 35.9663 62.8384 35.9663 63.003C35.9663 63.1929 36.0045 63.3511 36.0809 63.4777C36.1574 63.6169 36.2466 63.7245 36.3485 63.8004C36.4632 63.8764 36.5842 63.927 36.7116 63.9523C36.8517 63.9903 36.9791 64.0093 37.0938 64.0093C37.2722 64.0093 37.4951 63.9713 37.7627 63.8954C38.0302 63.8194 38.3041 63.6612 38.5844 63.4207C38.8775 63.1802 39.1641 62.8447 39.4444 62.4144C39.7374 61.984 39.9923 61.408 40.2088 60.6865C40.4382 59.9777 40.6165 59.1106 40.7439 58.0853C40.8841 57.0599 40.9478 55.8321 40.935 54.4017C40.6038 55.2878 40.2534 56.0093 39.884 56.5663C39.5272 57.1106 39.145 57.5346 38.7373 57.8384C38.3424 58.1422 37.9219 58.3447 37.476 58.446C37.0428 58.5473 36.5778 58.5979 36.0809 58.5979C35.4567 58.5979 34.8005 58.4903 34.1125 58.2751C33.4373 58.0473 32.813 57.6549 32.2397 57.0979C31.6791 56.5283 31.2141 55.7561 30.8446 54.7815C30.4751 53.8068 30.2904 52.5663 30.2904 51.0599C30.2904 50.8574 30.2904 50.7182 30.2904 50.6422C30.3031 50.5536 30.3095 50.4903 30.3095 50.4523C30.3095 50.4017 30.3159 50.3447 30.3286 50.2815C30.3414 50.2182 30.3477 50.0979 30.3477 49.9207C30.3477 49.7308 30.3477 49.465 30.3477 49.1232C30.3605 48.7815 30.3668 48.3004 30.3668 47.6802C30.3668 46.9587 30.3541 46.1422 30.3286 45.2308C30.3031 44.3194 30.2458 43.427 30.1566 42.5536C30.0802 41.6802 29.9655 40.8891 29.8126 40.1802C29.6598 39.4587 29.4623 38.927 29.2202 38.5853C30.2522 38.7625 31.2205 38.8827 32.125 38.946C33.0423 39.0093 33.8768 39.041 34.6285 39.041C35.1254 39.041 35.5713 39.0346 35.9663 39.022C36.374 38.9966 36.7243 38.9713 37.0174 38.946C37.3486 38.9207 37.648 38.8891 37.9156 38.8511C37.8136 39.0663 37.699 39.4777 37.5716 40.0853C37.4569 40.6929 37.3422 41.4207 37.2276 42.2688C37.1129 43.1169 37.0174 44.0473 36.9409 45.0599C36.8645 46.0599 36.8263 47.0726 36.8263 48.0979C36.8263 48.8701 36.8836 49.5283 36.9982 50.0726C37.1129 50.6169 37.2658 51.0663 37.4569 51.4207C37.6608 51.7625 37.8901 52.0156 38.1449 52.1802C38.4124 52.3447 38.6991 52.427 39.0049 52.427C39.489 52.427 39.8712 52.2308 40.1515 51.8384C40.4445 51.446 40.693 50.9523 40.8968 50.3574C40.8713 49.5726 40.8268 48.6549 40.7631 47.6042C40.6993 46.5536 40.6102 45.4587 40.4955 44.3194C40.3936 43.1802 40.2534 42.0346 40.0751 40.8827C39.9094 39.7182 39.6992 38.6359 39.4444 37.6359C39.8394 37.7751 40.3108 37.9017 40.8586 38.0156C41.33 38.1169 41.9033 38.2055 42.5786 38.2815C43.2538 38.3448 44.0501 38.3764 44.9674 38.3764C46.0503 38.3764 47.2734 38.3004 48.6366 38.1485Z" fill="#1A093F"/>
<path d="M66.6007 32.2435C66.1675 34.6485 65.8745 36.9144 65.7216 39.041C65.5814 41.1549 65.5114 43.1929 65.5114 45.1549C66.1739 43.6992 66.8236 42.1929 67.4607 40.6359C68.1104 39.0663 68.7474 37.4334 69.3717 35.7372C70.0215 37.6106 70.6712 39.3511 71.321 40.9587C71.9708 42.5663 72.6779 44.1042 73.4423 45.5726V43.8258C73.4423 41.8511 73.3467 39.908 73.1556 37.9966C72.9773 36.0853 72.6715 34.2688 72.2383 32.5473C72.2893 32.5853 72.4422 32.6359 72.697 32.6992C72.9518 32.7498 73.283 32.8004 73.6907 32.8511C74.1112 32.8891 74.5953 32.927 75.1431 32.965C75.691 33.003 76.2898 33.022 76.9395 33.022C77.9333 33.022 79.0035 32.965 80.1501 32.8511C81.3095 32.7372 82.4689 32.5346 83.6283 32.2435C83.348 32.8004 83.0804 33.5536 82.8256 34.503C82.5708 35.4397 82.3288 36.5093 82.0994 37.7118C81.8828 38.9144 81.6854 40.2245 81.507 41.6422C81.3286 43.0599 81.1757 44.5283 81.0483 46.0473C80.9209 47.5536 80.819 49.0789 80.7426 50.6232C80.6789 52.1675 80.647 53.6739 80.647 55.1422C80.647 56.0789 80.6598 56.984 80.6852 57.8574C80.7235 58.7182 80.7744 59.5473 80.8381 60.3447C79.5641 60.1296 78.4302 59.984 77.4364 59.908C76.4427 59.8194 75.5699 59.7751 74.8183 59.7751C74.3341 59.7751 73.9073 59.7878 73.5378 59.8131C73.1684 59.8384 72.8562 59.8637 72.6014 59.8891C72.3084 59.927 72.0536 59.965 71.837 60.003C71.6841 58.8764 71.5249 57.7751 71.3592 56.6992C71.1936 55.6232 71.0025 54.5979 70.7859 53.6232C70.5693 52.6359 70.3209 51.7118 70.0406 50.8511C69.7603 49.9777 69.4227 49.1802 69.0277 48.4587C68.7347 49.2815 68.4799 50.1296 68.2633 51.003C68.0595 51.8764 67.8875 52.8004 67.7473 53.7751C67.6072 54.7498 67.5052 55.7815 67.4415 56.8701C67.3778 57.9587 67.346 59.1169 67.346 60.3447C66.0719 60.1296 64.9253 59.984 63.9061 59.908C62.8996 59.8194 62.0332 59.7751 61.307 59.7751C60.8101 59.7751 60.377 59.7878 60.0075 59.8131C59.638 59.8384 59.3259 59.8637 59.0711 59.8891C58.778 59.927 58.536 59.965 58.3449 60.003C58.4213 58.5979 58.4595 57.1232 58.4595 55.5789C58.4595 54.1359 58.4277 52.6675 58.364 51.1739C58.3003 49.6802 58.2047 48.2055 58.0773 46.7498C57.9499 45.2815 57.7907 43.8511 57.5995 42.4587C57.4212 41.0663 57.211 39.7625 56.9689 38.5473C56.7396 37.3194 56.472 36.1992 56.1662 35.1865C55.8732 34.1612 55.5547 33.2815 55.2107 32.5473C55.5802 32.6485 56.0134 32.7308 56.5102 32.7941C56.9307 32.8574 57.4339 32.9144 58.02 32.965C58.6188 33.003 59.2877 33.022 60.0266 33.022C60.9439 33.022 61.9568 32.965 63.0652 32.8511C64.1864 32.7372 65.3649 32.5346 66.6007 32.2435Z" fill="#1A093F"/>
<path d="M102.357 48.8764C102.357 49.6106 102.299 50.4207 102.185 51.3068C102.07 52.1802 101.879 53.0663 101.611 53.965C101.344 54.8511 100.981 55.7182 100.522 56.5663C100.063 57.4017 99.4901 58.1422 98.8021 58.7878C98.1269 59.4334 97.3179 59.9523 96.3751 60.3447C95.4323 60.7372 94.3366 60.9334 93.0881 60.9334C91.8395 60.9334 90.7438 60.7498 89.801 60.3827C88.871 60.0156 88.0683 59.5283 87.3931 58.9207C86.7306 58.3004 86.1827 57.5916 85.7496 56.7941C85.3164 55.984 84.9724 55.1359 84.7176 54.2498C84.4628 53.3637 84.2844 52.4713 84.1825 51.5726C84.0933 50.6612 84.0487 49.8004 84.0487 48.9903C84.0487 47.5599 84.2398 46.1612 84.622 44.7941C85.0042 43.4144 85.5839 42.1865 86.3611 41.1106C87.151 40.0346 88.132 39.1675 89.3041 38.5093C90.489 37.8511 91.8777 37.522 93.4703 37.522C94.5405 37.522 95.5024 37.6865 96.356 38.0156C97.2096 38.3321 97.9676 38.7688 98.6301 39.3258C99.2927 39.8827 99.8532 40.5346 100.312 41.2815C100.783 42.0283 101.172 42.8194 101.478 43.6549C101.783 44.4903 102.006 45.3574 102.147 46.2561C102.287 47.1549 102.357 48.0283 102.357 48.8764ZM95.7062 49.503C95.7062 49.2118 95.6935 48.8511 95.668 48.4207C95.6553 47.9777 95.617 47.5156 95.5533 47.0346C95.4896 46.5536 95.4004 46.0726 95.2858 45.5916C95.1839 45.1106 95.0437 44.6802 94.8653 44.3004C94.687 43.9207 94.464 43.6106 94.1965 43.3701C93.9417 43.1296 93.6359 43.0093 93.2792 43.0093C92.9352 43.0093 92.6358 43.1232 92.381 43.3511C92.1262 43.5789 91.9032 43.8764 91.7121 44.2435C91.5337 44.6106 91.3808 45.0283 91.2534 45.4966C91.1388 45.9523 91.0432 46.4144 90.9668 46.8827C90.9031 47.3384 90.8521 47.7815 90.8139 48.2118C90.7884 48.6296 90.7757 48.984 90.7757 49.2751C90.7757 49.6929 90.8075 50.1992 90.8712 50.7941C90.9349 51.3891 91.056 51.9587 91.2343 52.503C91.4127 53.0473 91.6548 53.5156 91.9605 53.908C92.279 54.2878 92.6931 54.4777 93.2027 54.4777C93.6869 54.4777 94.0882 54.3004 94.4067 53.946C94.7379 53.5916 94.9991 53.1612 95.1902 52.6549C95.3813 52.1359 95.5151 51.5916 95.5916 51.022C95.668 50.4523 95.7062 49.946 95.7062 49.503Z" fill="#1A093F"/>
<path d="M114.263 42.7435C113.868 42.7435 113.511 42.8574 113.192 43.0853C112.874 43.3004 112.587 43.6106 112.332 44.0156C112.09 44.408 111.874 44.8827 111.683 45.4397C111.504 45.9966 111.358 46.6106 111.243 47.2815C111.243 48.3574 111.269 49.446 111.32 50.5473C111.371 51.6485 111.453 52.7372 111.568 53.8131C111.683 54.8891 111.829 55.9397 112.008 56.965C112.199 57.9903 112.428 58.965 112.696 59.8891C112.492 59.8764 112.256 59.8574 111.989 59.8321C111.759 59.8194 111.479 59.8068 111.148 59.7941C110.829 59.7815 110.46 59.7751 110.039 59.7751C109.249 59.7751 108.332 59.8131 107.287 59.8891C106.255 59.9523 105.109 60.0789 103.847 60.2688C104 59.5599 104.134 58.6929 104.249 57.6675C104.363 56.6422 104.459 55.5283 104.535 54.3258C104.612 53.1232 104.669 51.8701 104.707 50.5663C104.758 49.2498 104.784 47.9523 104.784 46.6739C104.784 45.7245 104.771 44.7941 104.746 43.8827C104.72 42.9713 104.682 42.1106 104.631 41.3004C104.593 40.4903 104.535 39.7435 104.459 39.0599C104.382 38.3764 104.293 37.7878 104.191 37.2941C105.223 37.4713 106.16 37.5979 107.001 37.6739C107.854 37.7372 108.619 37.7688 109.294 37.7688C109.727 37.7688 110.109 37.7625 110.441 37.7498C110.772 37.7245 111.058 37.6992 111.301 37.6739C111.568 37.6359 111.81 37.5979 112.027 37.5599C111.874 38.1929 111.759 38.8954 111.683 39.6675C112.345 38.8701 113.065 38.2815 113.842 37.9017C114.632 37.522 115.371 37.3321 116.059 37.3321C117.206 37.3321 118.174 37.541 118.964 37.9587C119.754 38.3637 120.391 38.9017 120.875 39.5726C121.359 40.2308 121.709 40.984 121.926 41.8321C122.143 42.6802 122.251 43.541 122.251 44.4144C122.251 45.2625 122.13 46.0916 121.888 46.9017C121.646 47.7118 121.295 48.4397 120.837 49.0853C120.378 49.7182 119.811 50.2308 119.136 50.6232C118.461 51.0156 117.696 51.2118 116.843 51.2118C116.091 51.2118 115.448 51.0853 114.912 50.8321C114.39 50.5789 113.957 50.2498 113.613 49.8447C113.269 49.4397 113.014 48.9966 112.848 48.5156C112.696 48.022 112.619 47.5346 112.619 47.0536C112.619 46.5473 112.689 46.0536 112.829 45.5726C112.982 45.0916 113.199 44.6549 113.479 44.2625C113.568 44.541 113.677 44.7561 113.804 44.908C113.944 45.0473 114.084 45.1485 114.224 45.2118C114.377 45.2878 114.543 45.3321 114.721 45.3448C115.193 45.3448 115.543 45.2372 115.772 45.022C116.014 44.8068 116.136 44.5536 116.136 44.2625C116.136 44.1232 116.11 43.965 116.059 43.7878C116.008 43.6106 115.913 43.446 115.772 43.2941C115.645 43.1422 115.46 43.0156 115.218 42.9144C114.976 42.8004 114.658 42.7435 114.263 42.7435Z" fill="#1A093F"/>
<path d="M131.997 59.8891C131.781 59.8764 131.526 59.8574 131.233 59.8321C130.978 59.8194 130.672 59.8068 130.316 59.7941C129.972 59.7815 129.577 59.7751 129.131 59.7751C128.303 59.7751 127.347 59.8131 126.264 59.8891C125.194 59.9523 124.028 60.0789 122.767 60.2688C122.945 59.9144 123.105 59.427 123.245 58.8068C123.385 58.1739 123.506 57.465 123.608 56.6802C123.71 55.8827 123.793 55.041 123.856 54.1549C123.933 53.2561 123.99 52.3574 124.028 51.4587C124.079 50.5599 124.111 49.6929 124.124 48.8574C124.149 48.0093 124.168 47.2498 124.181 46.5789C124.194 45.8954 124.2 45.3194 124.2 44.8511C124.2 44.3827 124.2 44.0789 124.2 43.9397C124.175 41.8258 124.117 39.8637 124.028 38.0536C123.99 37.2941 123.945 36.5283 123.894 35.7561C123.843 34.984 123.78 34.2625 123.703 33.5916C123.627 32.9207 123.538 32.3321 123.436 31.8258C123.347 31.3194 123.238 30.9397 123.111 30.6865C124.143 30.8637 125.098 30.984 125.978 31.0473C126.857 31.1106 127.647 31.1422 128.347 31.1422C128.806 31.1422 129.22 31.1359 129.589 31.1232C129.959 31.0979 130.271 31.0726 130.526 31.0473C130.832 31.022 131.099 30.9903 131.329 30.9523C131.214 31.522 131.106 32.2435 131.004 33.1169C130.914 33.9903 130.832 34.9713 130.755 36.0599C130.691 37.1485 130.641 38.3194 130.602 39.5726C130.564 40.8258 130.545 42.1169 130.545 43.446C130.545 44.965 130.57 46.4966 130.621 48.041C130.672 49.5853 130.755 51.0789 130.87 52.522C130.985 53.965 131.131 55.3194 131.309 56.5853C131.501 57.8384 131.73 58.9397 131.997 59.8891Z" fill="#1A093F"/>
<path d="M153 60.2308C152.707 60.2055 152.376 60.1802 152.006 60.1549C151.688 60.1296 151.312 60.1106 150.879 60.0979C150.458 60.0853 149.993 60.0789 149.484 60.0789C148.757 60.0789 147.987 60.1042 147.171 60.1549C146.356 60.2055 145.547 60.3004 144.744 60.4397C144.821 60.2878 144.903 59.9713 144.993 59.4903C145.082 59.0093 145.165 58.4777 145.241 57.8954C145.33 57.3131 145.407 56.7372 145.47 56.1675C145.547 55.5979 145.604 55.1549 145.642 54.8384C145.439 55.7878 145.152 56.6549 144.782 57.4397C144.426 58.2118 144.005 58.8764 143.521 59.4334C143.037 59.9777 142.495 60.4017 141.897 60.7055C141.298 61.0093 140.667 61.1612 140.005 61.1612C139.699 61.1612 139.323 61.1422 138.877 61.1042C138.431 61.0663 137.954 60.9397 137.444 60.7245C136.947 60.5093 136.444 60.1802 135.934 59.7372C135.437 59.2815 134.985 58.6485 134.577 57.8384C134.182 57.0156 133.857 55.9777 133.603 54.7245C133.361 53.4713 133.24 51.9397 133.24 50.1296C133.24 48.6106 133.348 47.2561 133.564 46.0663C133.794 44.8637 134.093 43.8068 134.463 42.8954C134.845 41.984 135.284 41.2118 135.781 40.5789C136.291 39.9334 136.82 39.408 137.367 39.003C137.928 38.5979 138.495 38.3068 139.068 38.1296C139.654 37.9397 140.215 37.8448 140.75 37.8448C141.349 37.8448 141.89 37.946 142.374 38.1485C142.859 38.3384 143.298 38.5916 143.693 38.908C144.088 39.2118 144.432 39.5663 144.725 39.9713C145.018 40.3637 145.273 40.7561 145.49 41.1485C145.464 40.5663 145.439 39.9334 145.413 39.2498C145.388 38.5663 145.356 37.8764 145.318 37.1802C145.279 36.484 145.228 35.8004 145.165 35.1296C145.114 34.446 145.05 33.8131 144.974 33.2308C144.91 32.6485 144.833 32.1359 144.744 31.6929C144.655 31.2498 144.553 30.9144 144.438 30.6865C145.458 30.8637 146.407 30.984 147.286 31.0473C148.165 31.1106 148.961 31.1422 149.675 31.1422C150.133 31.1422 150.547 31.1359 150.917 31.1232C151.286 31.0979 151.599 31.0726 151.853 31.0473C152.159 31.022 152.427 30.9903 152.656 30.9523C152.516 31.5853 152.388 32.4144 152.274 33.4397C152.159 34.4523 152.057 35.5979 151.968 36.8764C151.892 38.1549 151.828 39.5283 151.777 40.9966C151.739 42.4523 151.72 43.9397 151.72 45.4587C151.72 46.8637 151.739 48.2625 151.777 49.6549C151.828 51.0473 151.904 52.3891 152.006 53.6802C152.108 54.9587 152.242 56.1612 152.408 57.2878C152.573 58.4017 152.771 59.3827 153 60.2308ZM145.146 49.3511V46.2751C145.146 45.9334 145.126 45.5853 145.088 45.2308C145.05 44.8764 144.961 44.5536 144.821 44.2625C144.693 43.9713 144.502 43.7372 144.247 43.5599C143.993 43.3701 143.649 43.2751 143.215 43.2751C142.91 43.2751 142.648 43.3954 142.432 43.6359C142.215 43.8764 142.037 44.1865 141.897 44.5663C141.757 44.946 141.642 45.3701 141.553 45.8384C141.464 46.3068 141.4 46.7751 141.362 47.2435C141.323 47.6992 141.298 48.1296 141.285 48.5346C141.272 48.927 141.266 49.2372 141.266 49.465C141.266 49.8068 141.279 50.2308 141.304 50.7372C141.342 51.2308 141.419 51.7118 141.534 52.1802C141.648 52.6359 141.82 53.0283 142.05 53.3574C142.292 53.6865 142.617 53.8511 143.024 53.8511C143.483 53.8511 143.852 53.6929 144.133 53.3764C144.413 53.0599 144.623 52.6675 144.763 52.1992C144.916 51.7308 145.018 51.2435 145.069 50.7372C145.12 50.2182 145.146 49.7561 145.146 49.3511Z" fill="#1A093F"/>
<path d="M148.548 22.5018L146.25 24.7407L154.292 28.0989L157.74 35.9364L160.038 33.6976L158.889 28.0989L164.273 22.8533L170.139 35.0513L172.315 32.9312L170.381 16.9032L174.977 12.4239C175.287 12.1318 175.535 11.7824 175.705 11.396C175.875 11.0097 175.965 10.5941 175.969 10.1737C175.973 9.75321 175.89 9.33622 175.727 8.94705C175.564 8.55788 175.322 8.20431 175.017 7.90699C174.712 7.60966 174.349 7.37453 173.95 7.2153C173.55 7.05608 173.122 6.97596 172.691 6.97961C172.259 6.98327 171.833 7.07062 171.436 7.23658C171.04 7.40255 170.681 7.64379 170.381 7.94624L165.664 12.5427L149.214 10.6569L147.158 12.6614L159.58 18.4722L154.294 23.6228L148.548 22.5018Z" fill="#FD5056"/>
</svg>
