<svg width="80" height="81" viewBox="0 0 80 81" fill="none" xmlns="http://www.w3.org/2000/svg">
<path fill-rule="evenodd" clip-rule="evenodd" d="M22.9352 15.8121C22.2941 16.6732 20.9152 19.6056 20.2513 21.096L66.3607 40.4379C66.9598 38.9173 68.0953 35.8557 68.2522 34.8216C69.2836 28.956 66.5565 23.7467 60.9244 20.7785L38.0887 11.1994C31.9846 9.2144 26.4175 10.9173 22.9352 15.8121ZM12.0586 40.602L20.2423 21.0928L66.3694 40.4421L58.1201 60.1077C54.7458 68.1517 47.6078 70.9736 39.5064 67.5753L19.6834 59.2599C11.658 55.8934 8.66169 48.6999 12.0586 40.602Z" fill="url(#paint0_linear_62_3812)"/>
<g opacity="0.5" filter="url(#filter0_f_62_3812)">
<path d="M50.7436 25.0229L37.9547 19.8609C33.3158 17.9885 29.4237 19.8496 27.3825 24.9065L20.4695 42.0337C18.3949 47.1735 19.9314 51.1486 24.5702 53.021L37.3592 58.183C42.0728 60.0856 45.8619 58.26 47.9365 53.1202L54.8496 35.993C56.8907 30.9361 55.4573 26.9255 50.7436 25.0229Z" fill="#EB6F0A"/>
</g>
<g filter="url(#filter1_b_62_3812)">
<mask id="path-3-outside-1_62_3812" maskUnits="userSpaceOnUse" x="24.4348" y="23.8749" width="53" height="54" fill="black">
<rect fill="white" x="24.4348" y="23.8749" width="53" height="54"/>
<path fill-rule="evenodd" clip-rule="evenodd" d="M25.8754 34.9902C25.6173 36.0324 25.4801 39.2698 25.4444 40.9011H75.4462C75.4105 39.267 75.2733 36.0046 75.0179 34.9902C73.7002 29.1822 69.1703 25.4334 62.8284 24.8749H38.065C31.6682 25.4057 27.1932 29.1294 25.8754 34.9902ZM25.4348 40.9016V62.0577C25.4348 70.8392 30.9805 76.3137 39.6834 76.3137H61.1798C69.9651 76.3137 75.4559 70.9503 75.4559 62.2272V40.9016H25.4348ZM36.8556 53.0012C36.9105 54.2767 37.9537 55.2799 39.2166 55.2216C40.452 55.1688 41.4404 54.1128 41.3855 52.8317C41.358 51.5839 40.3422 50.6085 39.1068 50.6085C37.8439 50.6669 36.8556 51.7229 36.8556 53.0012ZM48.1393 53.0012C48.1942 54.2767 49.2374 55.2799 50.5003 55.2216C51.7357 55.1688 52.7241 54.1128 52.6692 52.8317C52.6417 51.5839 51.6259 50.6085 50.3905 50.6085C49.1276 50.6669 48.1393 51.7229 48.1393 53.0012ZM59.4228 63.086C59.4228 64.3643 60.4386 65.4203 61.7015 65.4481C62.9918 65.4481 64.0351 64.3921 64.0351 63.086C64.0351 61.7827 62.9918 60.7267 61.7015 60.7267H61.674C60.4112 60.7544 59.3954 61.8077 59.4228 63.086ZM50.5003 65.3092C49.2374 65.3676 48.1942 64.3643 48.1393 63.086C48.1393 61.8077 49.1276 60.7545 50.3905 60.6961C51.6259 60.6961 52.6417 61.6715 52.6692 62.9221C52.7241 64.2004 51.7357 65.2564 50.5003 65.3092ZM39.1892 65.3092C37.9263 65.3676 36.883 64.3643 36.8281 63.086C36.8281 61.8077 37.8165 60.7545 39.0793 60.6961C40.3148 60.6961 41.3306 61.6715 41.358 62.9221C41.4129 64.2004 40.4246 65.2564 39.1892 65.3092ZM61.7014 50.6391C60.4385 50.6669 59.4501 51.6951 59.4501 52.9734V53.0012C59.4776 54.2767 60.5208 55.2493 61.7837 55.2216C63.0191 55.1965 64.0075 54.1405 63.98 52.8622C63.9251 51.6367 62.9368 50.6391 61.7014 50.6391Z"/>
</mask>
<path fill-rule="evenodd" clip-rule="evenodd" d="M25.8754 34.9902C25.6173 36.0324 25.4801 39.2698 25.4444 40.9011H75.4462C75.4105 39.267 75.2733 36.0046 75.0179 34.9902C73.7002 29.1822 69.1703 25.4334 62.8284 24.8749H38.065C31.6682 25.4057 27.1932 29.1294 25.8754 34.9902ZM25.4348 40.9016V62.0577C25.4348 70.8392 30.9805 76.3137 39.6834 76.3137H61.1798C69.9651 76.3137 75.4559 70.9503 75.4559 62.2272V40.9016H25.4348ZM36.8556 53.0012C36.9105 54.2767 37.9537 55.2799 39.2166 55.2216C40.452 55.1688 41.4404 54.1128 41.3855 52.8317C41.358 51.5839 40.3422 50.6085 39.1068 50.6085C37.8439 50.6669 36.8556 51.7229 36.8556 53.0012ZM48.1393 53.0012C48.1942 54.2767 49.2374 55.2799 50.5003 55.2216C51.7357 55.1688 52.7241 54.1128 52.6692 52.8317C52.6417 51.5839 51.6259 50.6085 50.3905 50.6085C49.1276 50.6669 48.1393 51.7229 48.1393 53.0012ZM59.4228 63.086C59.4228 64.3643 60.4386 65.4203 61.7015 65.4481C62.9918 65.4481 64.0351 64.3921 64.0351 63.086C64.0351 61.7827 62.9918 60.7267 61.7015 60.7267H61.674C60.4112 60.7544 59.3954 61.8077 59.4228 63.086ZM50.5003 65.3092C49.2374 65.3676 48.1942 64.3643 48.1393 63.086C48.1393 61.8077 49.1276 60.7545 50.3905 60.6961C51.6259 60.6961 52.6417 61.6715 52.6692 62.9221C52.7241 64.2004 51.7357 65.2564 50.5003 65.3092ZM39.1892 65.3092C37.9263 65.3676 36.883 64.3643 36.8281 63.086C36.8281 61.8077 37.8165 60.7545 39.0793 60.6961C40.3148 60.6961 41.3306 61.6715 41.358 62.9221C41.4129 64.2004 40.4246 65.2564 39.1892 65.3092ZM61.7014 50.6391C60.4385 50.6669 59.4501 51.6951 59.4501 52.9734V53.0012C59.4776 54.2767 60.5208 55.2493 61.7837 55.2216C63.0191 55.1965 64.0075 54.1405 63.98 52.8622C63.9251 51.6367 62.9368 50.6391 61.7014 50.6391Z" fill="#FFCBB9" fill-opacity="0.35"/>
<path d="M25.4444 40.9011L24.4446 40.8792C24.4387 41.1481 24.5415 41.4081 24.7296 41.6004C24.9177 41.7927 25.1754 41.9011 25.4444 41.9011V40.9011ZM25.8754 34.9902L26.8461 35.2306C26.8478 35.2236 26.8495 35.2166 26.8511 35.2096L25.8754 34.9902ZM75.4462 40.9011V41.9011C75.7152 41.9011 75.9729 41.7927 76.161 41.6004C76.3491 41.4081 76.4519 41.1482 76.446 40.8792L75.4462 40.9011ZM75.0179 34.9902L74.0427 35.2115C74.0445 35.2191 74.0463 35.2268 74.0482 35.2344L75.0179 34.9902ZM62.8284 24.8749L62.9161 23.8787C62.887 23.8762 62.8577 23.8749 62.8284 23.8749V24.8749ZM38.065 24.8749V23.8749C38.0374 23.8749 38.0098 23.876 37.9823 23.8783L38.065 24.8749ZM25.4348 40.9016V39.9016C24.8825 39.9016 24.4348 40.3493 24.4348 40.9016H25.4348ZM75.4559 40.9016H76.4559C76.4559 40.3493 76.0082 39.9016 75.4559 39.9016V40.9016ZM39.2166 55.2216L39.1739 54.2225L39.1705 54.2226L39.2166 55.2216ZM36.8556 53.0012H35.8556C35.8556 53.0155 35.8559 53.0299 35.8565 53.0442L36.8556 53.0012ZM41.3855 52.8317L40.3857 52.8537C40.3859 52.8606 40.3861 52.8675 40.3864 52.8745L41.3855 52.8317ZM39.1068 50.6085V49.6085C39.0914 49.6085 39.076 49.6089 39.0606 49.6096L39.1068 50.6085ZM50.5003 55.2216L50.4576 54.2225L50.4541 54.2226L50.5003 55.2216ZM48.1393 53.0012H47.1393C47.1393 53.0155 47.1396 53.0299 47.1402 53.0442L48.1393 53.0012ZM52.6692 52.8317L51.6694 52.8537C51.6696 52.8606 51.6698 52.8675 51.6701 52.8745L52.6692 52.8317ZM50.3905 50.6085V49.6085C50.3751 49.6085 50.3597 49.6089 50.3443 49.6096L50.3905 50.6085ZM61.7015 65.4481L61.6795 66.4478C61.6868 66.448 61.6942 66.4481 61.7015 66.4481V65.4481ZM59.4228 63.086H60.4228C60.4228 63.0788 60.4227 63.0717 60.4226 63.0645L59.4228 63.086ZM61.674 60.7267V59.7267C61.6667 59.7267 61.6594 59.7267 61.652 59.7269L61.674 60.7267ZM48.1393 63.086H47.1393C47.1393 63.1003 47.1396 63.1147 47.1402 63.1289L48.1393 63.086ZM50.5003 65.3092L50.4576 64.3101L50.4541 64.3103L50.5003 65.3092ZM50.3905 60.6961V59.6961C50.3751 59.6961 50.3597 59.6965 50.3443 59.6972L50.3905 60.6961ZM52.6692 62.9221L51.6694 62.944C51.6696 62.951 51.6698 62.958 51.6701 62.965L52.6692 62.9221ZM36.8281 63.086H35.8281C35.8281 63.1003 35.8284 63.1147 35.829 63.1289L36.8281 63.086ZM39.1892 65.3092L39.1465 64.3101L39.143 64.3103L39.1892 65.3092ZM39.0793 60.6961V59.6961C39.064 59.6961 39.0486 59.6965 39.0332 59.6972L39.0793 60.6961ZM41.358 62.9221L40.3583 62.944C40.3584 62.951 40.3586 62.958 40.3589 62.965L41.358 62.9221ZM61.7014 50.6391V49.6391C61.694 49.6391 61.6867 49.6392 61.6794 49.6393L61.7014 50.6391ZM59.4501 53.0012H58.4501C58.4501 53.0084 58.4502 53.0155 58.4504 53.0227L59.4501 53.0012ZM61.7837 55.2216L61.7635 54.2218L61.7617 54.2218L61.7837 55.2216ZM63.98 52.8622L64.9798 52.8408C64.9796 52.833 64.9794 52.8252 64.979 52.8175L63.98 52.8622ZM26.4441 40.9229C26.4618 40.1178 26.5045 38.9143 26.5746 37.7867C26.647 36.6218 26.7429 35.6472 26.8461 35.2306L24.9047 34.7499C24.7498 35.3754 24.6481 36.5406 24.5784 37.6627C24.5064 38.8222 24.4627 40.0531 24.4446 40.8792L26.4441 40.9229ZM75.4462 39.9011H25.4444V41.9011H75.4462V39.9011ZM74.0482 35.2344C74.1488 35.634 74.2442 36.6041 74.3163 37.7748C74.3861 38.9056 74.4288 40.1163 74.4465 40.9229L76.446 40.8792C76.4279 40.0519 76.3842 38.8142 76.3126 37.6517C76.2433 36.5291 76.1424 35.3608 75.9877 34.7461L74.0482 35.2344ZM62.7407 25.871C68.6924 26.3952 72.8302 29.8674 74.0427 35.2115L75.9932 34.769C74.5701 28.4971 69.6482 24.4717 62.9161 23.8787L62.7407 25.871ZM38.065 25.8749H62.8284V23.8749H38.065V25.8749ZM26.8511 35.2096C28.0647 29.812 32.1476 26.3693 38.1476 25.8715L37.9823 23.8783C31.1888 24.442 26.3217 28.4469 24.8998 34.7709L26.8511 35.2096ZM26.4348 62.0577V40.9016H24.4348V62.0577H26.4348ZM39.6834 75.3137C35.5442 75.3137 32.2542 74.016 30.0015 71.7705C27.7493 69.5256 26.4348 66.2346 26.4348 62.0577H24.4348C24.4348 66.6623 25.8932 70.4993 28.5896 73.187C31.2854 75.8742 35.1197 77.3137 39.6834 77.3137V75.3137ZM61.1798 75.3137H39.6834V77.3137H61.1798V75.3137ZM74.4559 62.2272C74.4559 66.3754 73.1551 69.6207 70.911 71.8288C68.6649 74.0389 65.3682 75.3137 61.1798 75.3137V77.3137C65.7768 77.3137 69.6181 75.9068 72.3137 73.2544C75.0113 70.6001 76.4559 66.8022 76.4559 62.2272H74.4559ZM74.4559 40.9016V62.2272H76.4559V40.9016H74.4559ZM25.4348 41.9016H75.4559V39.9016H25.4348V41.9016ZM39.1705 54.2226C38.4929 54.2539 37.8872 53.7137 37.8547 52.9582L35.8565 53.0442C35.9338 54.8397 37.4145 56.3059 39.2628 56.2205L39.1705 54.2226ZM40.3864 52.8745C40.4177 53.6055 39.8558 54.1933 39.1739 54.2225L39.2593 56.2206C41.0483 56.1442 42.463 54.62 42.3846 52.7888L40.3864 52.8745ZM39.1068 51.6085C39.8056 51.6085 40.3704 52.1565 40.3857 52.8537L42.3852 52.8097C42.3457 51.0113 40.8789 49.6085 39.1068 49.6085V51.6085ZM37.8556 53.0012C37.8556 52.2421 38.4388 51.6404 39.153 51.6074L39.0606 49.6096C37.249 49.6933 35.8556 51.2036 35.8556 53.0012H37.8556ZM50.4541 54.2226C49.7766 54.2539 49.1709 53.7137 49.1383 52.9582L47.1402 53.0442C47.2175 54.8397 48.6982 56.3059 50.5465 56.2205L50.4541 54.2226ZM51.6701 52.8745C51.7014 53.6055 51.1395 54.1933 50.4576 54.2225L50.543 56.2206C52.332 56.1442 53.7467 54.62 53.6682 52.7888L51.6701 52.8745ZM50.3905 51.6085C51.0892 51.6085 51.6541 52.1565 51.6694 52.8537L53.6689 52.8097C53.6293 51.0113 52.1626 49.6085 50.3905 49.6085V51.6085ZM49.1393 53.0012C49.1393 52.2421 49.7225 51.6404 50.4366 51.6074L50.3443 49.6096C48.5327 49.6933 47.1393 51.2036 47.1393 53.0012H49.1393ZM61.7235 64.4483C61.018 64.4328 60.4228 63.8345 60.4228 63.086H58.4228C58.4228 64.8941 59.8593 66.4078 61.6795 66.4478L61.7235 64.4483ZM63.0351 63.086C63.0351 63.8513 62.4281 64.4481 61.7015 64.4481V66.4481C63.5555 66.4481 65.0351 64.9329 65.0351 63.086H63.0351ZM61.7015 61.7267C62.4289 61.7267 63.0351 62.3242 63.0351 63.086H65.0351C65.0351 61.2411 63.5548 59.7267 61.7015 59.7267V61.7267ZM61.674 61.7267H61.7015V59.7267H61.674V61.7267ZM60.4226 63.0645C60.407 62.3381 60.9852 61.7421 61.696 61.7264L61.652 59.7269C59.8371 59.7668 58.3837 61.2773 58.4231 63.1075L60.4226 63.0645ZM47.1402 63.1289C47.2174 64.9266 48.6975 66.3936 50.5465 66.3081L50.4541 64.3103C49.7774 64.3415 49.1709 63.8021 49.1383 63.0431L47.1402 63.1289ZM50.3443 59.6972C48.5342 59.7808 47.1393 61.287 47.1393 63.086H49.1393C49.1393 62.3284 49.721 61.7281 50.4366 61.6951L50.3443 59.6972ZM53.6689 62.9001C53.6294 61.0997 52.1634 59.6961 50.3905 59.6961V61.6961C51.0885 61.6961 51.654 62.2434 51.6694 62.944L53.6689 62.9001ZM50.543 66.3083C52.3312 66.2319 53.7468 64.7085 53.6682 62.8792L51.6701 62.965C51.7013 63.6923 51.1403 64.2809 50.4576 64.3101L50.543 66.3083ZM35.829 63.1289C35.9063 64.9266 37.3863 66.3936 39.2353 66.3081L39.143 64.3103C38.4662 64.3415 37.8598 63.8021 37.8272 63.0431L35.829 63.1289ZM39.0332 59.6972C37.223 59.7808 35.8281 61.287 35.8281 63.086H37.8281C37.8281 62.3284 38.4099 61.7281 39.1255 61.6951L39.0332 59.6972ZM42.3578 62.9001C42.3183 61.0997 40.8522 59.6961 39.0793 59.6961V61.6961C39.7773 61.6961 40.3429 62.2434 40.3583 62.944L42.3578 62.9001ZM39.2319 66.3083C41.02 66.2319 42.4357 64.7085 42.3571 62.8792L40.3589 62.965C40.3902 63.6923 39.8291 64.2809 39.1465 64.3101L39.2319 66.3083ZM60.4501 52.9734C60.4501 52.2245 61.0182 51.6543 61.7234 51.6388L61.6794 49.6393C59.8587 49.6794 58.4501 51.1656 58.4501 52.9734H60.4501ZM60.4501 53.0012V52.9734H58.4501V53.0012H60.4501ZM61.7617 54.2218C61.0394 54.2377 60.4652 53.6912 60.4499 52.9797L58.4504 53.0227C58.49 54.8623 60.0022 56.261 61.8057 56.2213L61.7617 54.2218ZM62.9803 52.8837C62.9964 53.6361 62.4199 54.2085 61.7635 54.2218L61.804 56.2214C63.6184 56.1846 65.0186 54.645 64.9798 52.8408L62.9803 52.8837ZM61.7014 51.6391C62.374 51.6391 62.9488 52.1875 62.981 52.907L64.979 52.8175C64.9015 51.086 63.4996 49.6391 61.7014 49.6391V51.6391Z" fill="url(#paint1_linear_62_3812)" mask="url(#path-3-outside-1_62_3812)"/>
</g>
<g filter="url(#filter2_bd_62_3812)">
<mask id="path-5-inside-2_62_3812" fill="white">
<path fill-rule="evenodd" clip-rule="evenodd" d="M42.2909 31.35C42.2909 32.5755 41.3849 33.4897 40.1769 33.4897C38.969 33.4897 38.063 32.5755 38.063 31.35V22.8769C38.063 21.6514 38.969 20.7344 40.1769 20.7344C41.3849 20.7344 42.2909 21.6514 42.2909 22.8769V31.35ZM62.8273 31.35C62.8273 32.5755 61.8939 33.4897 60.7133 33.4897C59.5054 33.4897 58.5994 32.5755 58.5994 31.35V22.8769C58.5994 21.6514 59.5054 20.7344 60.7133 20.7344C61.8939 20.7344 62.8273 21.6514 62.8273 22.8769V31.35Z"/>
</mask>
<path fill-rule="evenodd" clip-rule="evenodd" d="M42.2909 31.35C42.2909 32.5755 41.3849 33.4897 40.1769 33.4897C38.969 33.4897 38.063 32.5755 38.063 31.35V22.8769C38.063 21.6514 38.969 20.7344 40.1769 20.7344C41.3849 20.7344 42.2909 21.6514 42.2909 22.8769V31.35ZM62.8273 31.35C62.8273 32.5755 61.8939 33.4897 60.7133 33.4897C59.5054 33.4897 58.5994 32.5755 58.5994 31.35V22.8769C58.5994 21.6514 59.5054 20.7344 60.7133 20.7344C61.8939 20.7344 62.8273 21.6514 62.8273 22.8769V31.35Z" fill="url(#paint2_linear_62_3812)"/>
<path d="M40.1769 33.8897C41.6101 33.8897 42.6909 32.7921 42.6909 31.35H41.8909C41.8909 32.3588 41.1598 33.0897 40.1769 33.0897V33.8897ZM37.663 31.35C37.663 32.7921 38.7438 33.8897 40.1769 33.8897V33.0897C39.1941 33.0897 38.463 32.3588 38.463 31.35H37.663ZM37.663 22.8769V31.35H38.463V22.8769H37.663ZM40.1769 20.3344C38.7431 20.3344 37.663 21.4355 37.663 22.8769H38.463C38.463 21.8674 39.1948 21.1344 40.1769 21.1344V20.3344ZM42.6909 22.8769C42.6909 21.4355 41.6107 20.3344 40.1769 20.3344V21.1344C41.1591 21.1344 41.8909 21.8674 41.8909 22.8769H42.6909ZM42.6909 31.35V22.8769H41.8909V31.35H42.6909ZM60.7133 33.8897C62.1156 33.8897 63.2273 32.7956 63.2273 31.35H62.4273C62.4273 32.3554 61.6721 33.0897 60.7133 33.0897V33.8897ZM58.1994 31.35C58.1994 32.7921 59.2802 33.8897 60.7133 33.8897V33.0897C59.7305 33.0897 58.9994 32.3588 58.9994 31.35H58.1994ZM58.1994 22.8769V31.35H58.9994V22.8769H58.1994ZM60.7133 20.3344C59.2795 20.3344 58.1994 21.4355 58.1994 22.8769H58.9994C58.9994 21.8674 59.7312 21.1344 60.7133 21.1344V20.3344ZM63.2273 22.8769C63.2273 21.432 62.1163 20.3344 60.7133 20.3344V21.1344C61.6714 21.1344 62.4273 21.8708 62.4273 22.8769H63.2273ZM63.2273 31.35V22.8769H62.4273V31.35H63.2273Z" fill="url(#paint3_linear_62_3812)" mask="url(#path-5-inside-2_62_3812)"/>
</g>
<g filter="url(#filter3_bd_62_3812)">
<mask id="path-7-inside-3_62_3812" fill="white">
<path fill-rule="evenodd" clip-rule="evenodd" d="M36.8809 53.0265C36.9358 54.302 37.979 55.3052 39.2419 55.2468C40.4773 55.194 41.4657 54.138 41.4108 52.857C41.3833 51.6092 40.3675 50.6338 39.1321 50.6338C37.8692 50.6921 36.8809 51.7481 36.8809 53.0265ZM48.1639 53.0265C48.2189 54.302 49.2621 55.3052 50.525 55.2468C51.7604 55.194 52.7487 54.138 52.6938 52.857C52.6664 51.6092 51.6506 50.6338 50.4152 50.6338C49.1523 50.6921 48.1639 51.7481 48.1639 53.0265ZM59.4475 63.1111C59.4475 64.3895 60.4633 65.4455 61.7262 65.4733C63.0165 65.4733 64.0598 64.4173 64.0598 63.1111C64.0598 61.8078 63.0165 60.7518 61.7262 60.7518H61.6987C60.4359 60.7796 59.4201 61.8328 59.4475 63.1111ZM50.525 65.3345C49.2621 65.3929 48.2189 64.3897 48.1639 63.1113C48.1639 61.833 49.1523 60.7798 50.4152 60.7214C51.6506 60.7214 52.6664 61.6969 52.6938 62.9474C52.7487 64.2257 51.7604 65.2817 50.525 65.3345ZM39.2138 65.3345C37.9509 65.3929 36.9077 64.3897 36.8528 63.1113C36.8528 61.833 37.8411 60.7798 39.104 60.7214C40.3394 60.7214 41.3552 61.6969 41.3827 62.9474C41.4376 64.2257 40.4492 65.2817 39.2138 65.3345ZM61.726 50.6644C60.4632 50.6922 59.4748 51.7204 59.4748 52.9988V53.0265C59.5023 54.3021 60.5455 55.2747 61.8084 55.2469C63.0438 55.2219 64.0322 54.1659 64.0047 52.8876C63.9498 51.6621 62.9615 50.6644 61.726 50.6644Z"/>
</mask>
<path fill-rule="evenodd" clip-rule="evenodd" d="M36.8809 53.0265C36.9358 54.302 37.979 55.3052 39.2419 55.2468C40.4773 55.194 41.4657 54.138 41.4108 52.857C41.3833 51.6092 40.3675 50.6338 39.1321 50.6338C37.8692 50.6921 36.8809 51.7481 36.8809 53.0265ZM48.1639 53.0265C48.2189 54.302 49.2621 55.3052 50.525 55.2468C51.7604 55.194 52.7487 54.138 52.6938 52.857C52.6664 51.6092 51.6506 50.6338 50.4152 50.6338C49.1523 50.6921 48.1639 51.7481 48.1639 53.0265ZM59.4475 63.1111C59.4475 64.3895 60.4633 65.4455 61.7262 65.4733C63.0165 65.4733 64.0598 64.4173 64.0598 63.1111C64.0598 61.8078 63.0165 60.7518 61.7262 60.7518H61.6987C60.4359 60.7796 59.4201 61.8328 59.4475 63.1111ZM50.525 65.3345C49.2621 65.3929 48.2189 64.3897 48.1639 63.1113C48.1639 61.833 49.1523 60.7798 50.4152 60.7214C51.6506 60.7214 52.6664 61.6969 52.6938 62.9474C52.7487 64.2257 51.7604 65.2817 50.525 65.3345ZM39.2138 65.3345C37.9509 65.3929 36.9077 64.3897 36.8528 63.1113C36.8528 61.833 37.8411 60.7798 39.104 60.7214C40.3394 60.7214 41.3552 61.6969 41.3827 62.9474C41.4376 64.2257 40.4492 65.2817 39.2138 65.3345ZM61.726 50.6644C60.4632 50.6922 59.4748 51.7204 59.4748 52.9988V53.0265C59.5023 54.3021 60.5455 55.2747 61.8084 55.2469C63.0438 55.2219 64.0322 54.1659 64.0047 52.8876C63.9498 51.6621 62.9615 50.6644 61.726 50.6644Z" fill="url(#paint4_linear_62_3812)"/>
<path d="M39.2419 55.2468L39.2248 54.8472L39.2234 54.8473L39.2419 55.2468ZM36.8809 53.0265H36.4809V53.0351L36.4812 53.0437L36.8809 53.0265ZM41.4108 52.857L41.0108 52.8658L41.0111 52.8741L41.4108 52.857ZM39.1321 50.6338V50.2338H39.1228L39.1136 50.2342L39.1321 50.6338ZM50.525 55.2468L50.5079 54.8472L50.5065 54.8473L50.525 55.2468ZM48.1639 53.0265H47.7639V53.0351L47.7643 53.0437L48.1639 53.0265ZM52.6938 52.857L52.2938 52.8658L52.2942 52.8741L52.6938 52.857ZM50.4152 50.6338V50.2338H50.4059L50.3967 50.2342L50.4152 50.6338ZM61.7262 65.4733L61.7174 65.8733H61.7262V65.4733ZM59.4475 63.1111H59.8476L59.8474 63.1026L59.4475 63.1111ZM61.6987 60.7518V60.3517L61.6899 60.3519L61.6987 60.7518ZM48.1639 63.1113H47.7639V63.1199L47.7643 63.1285L48.1639 63.1113ZM50.525 65.3345L50.5079 64.9349L50.5065 64.9349L50.525 65.3345ZM50.4152 60.7214V60.3214H50.4059L50.3967 60.3219L50.4152 60.7214ZM52.6938 62.9474L52.2938 62.9562L52.2942 62.9645L52.6938 62.9474ZM36.8528 63.1113H36.4528V63.1199L36.4532 63.1285L36.8528 63.1113ZM39.2138 65.3345L39.1967 64.9349L39.1954 64.9349L39.2138 65.3345ZM39.104 60.7214V60.3214H39.0948L39.0855 60.3219L39.104 60.7214ZM41.3827 62.9474L40.9827 62.9562L40.983 62.9645L41.3827 62.9474ZM61.726 50.6644V50.2643L61.7172 50.2645L61.726 50.6644ZM59.4748 53.0265H59.0747L59.0749 53.0352L59.4748 53.0265ZM61.8084 55.2469L61.8003 54.847L61.7996 54.847L61.8084 55.2469ZM64.0047 52.8876L64.4047 52.879L64.4043 52.8697L64.0047 52.8876ZM39.2234 54.8473C38.1947 54.8948 37.3264 54.0768 37.2805 53.0093L36.4812 53.0437C36.5451 54.5272 37.7633 55.7156 39.2604 55.6464L39.2234 54.8473ZM41.0111 52.8741C41.0566 53.9351 40.2388 54.8039 39.2248 54.8472L39.259 55.6465C40.7158 55.5842 41.8747 54.341 41.8104 52.8398L41.0111 52.8741ZM39.1321 51.0338C40.1528 51.0338 40.9882 51.8382 41.0108 52.8658L41.8107 52.8482C41.7784 51.3802 40.5822 50.2338 39.1321 50.2338V51.0338ZM37.2809 53.0265C37.2809 51.9558 38.1072 51.0816 39.1505 51.0334L39.1136 50.2342C37.6312 50.3027 36.4809 51.5405 36.4809 53.0265H37.2809ZM50.5065 54.8473C49.4778 54.8948 48.6095 54.0768 48.5636 53.0093L47.7643 53.0437C47.8282 54.5272 49.0464 55.7156 50.5434 55.6464L50.5065 54.8473ZM52.2942 52.8741C52.3397 53.9351 51.5219 54.8039 50.5079 54.8472L50.5421 55.6465C51.9989 55.5842 53.1578 54.341 53.0935 52.8398L52.2942 52.8741ZM50.4152 51.0338C51.4359 51.0338 52.2713 51.8382 52.2939 52.8658L53.0937 52.8482C53.0614 51.3802 51.8653 50.2338 50.4152 50.2338V51.0338ZM48.5639 53.0265C48.5639 51.9558 49.3902 51.0816 50.4336 51.0334L50.3967 50.2342C48.9143 50.3027 47.7639 51.5405 47.7639 53.0265H48.5639ZM61.735 65.0733C60.695 65.0505 59.8475 64.1775 59.8475 63.1111H59.0475C59.0475 64.6014 60.2316 65.8405 61.7174 65.8732L61.735 65.0733ZM63.6598 63.1111C63.6598 64.2009 62.791 65.0733 61.7262 65.0733V65.8733C63.242 65.8733 64.4598 64.6336 64.4598 63.1111H63.6598ZM61.7262 61.1518C62.7913 61.1518 63.6598 62.0244 63.6598 63.1111H64.4598C64.4598 61.5912 63.2417 60.3518 61.7262 60.3518V61.1518ZM61.6987 61.1518H61.7262V60.3518H61.6987V61.1518ZM59.8474 63.1026C59.8247 62.045 60.6655 61.1747 61.7075 61.1517L61.6899 60.3519C60.2062 60.3846 59.0154 61.6207 59.0476 63.1197L59.8474 63.1026ZM47.7643 63.1285C47.8281 64.6145 49.0461 65.8033 50.5434 65.7341L50.5065 64.9349C49.4781 64.9825 48.6096 64.1648 48.5636 63.0942L47.7643 63.1285ZM50.3967 60.3219C48.9149 60.3903 47.7639 61.6247 47.7639 63.1113H48.5639C48.5639 62.0413 49.3897 61.1693 50.4336 61.121L50.3967 60.3219ZM53.0937 62.9386C53.0615 61.4681 51.8656 60.3214 50.4152 60.3214V61.1214C51.4356 61.1214 52.2713 61.9256 52.2939 62.9562L53.0937 62.9386ZM50.5421 65.7341C51.9986 65.6719 53.1578 64.4289 53.0935 62.9302L52.2942 62.9645C52.3396 64.0225 51.5222 64.8915 50.5079 64.9349L50.5421 65.7341ZM36.4532 63.1285C36.517 64.6145 37.735 65.8033 39.2323 65.7341L39.1954 64.9349C38.1669 64.9825 37.2984 64.1648 37.2524 63.0942L36.4532 63.1285ZM39.0855 60.3219C37.6038 60.3903 36.4528 61.6247 36.4528 63.1113H37.2528C37.2528 62.0413 38.0785 61.1693 39.1225 61.121L39.0855 60.3219ZM41.7826 62.9386C41.7503 61.4681 40.5544 60.3214 39.104 60.3214V61.1214C40.1244 61.1214 40.9602 61.9256 40.9828 62.9562L41.7826 62.9386ZM39.2309 65.7341C40.6874 65.6719 41.8467 64.4289 41.7823 62.9302L40.983 62.9645C41.0285 64.0225 40.2111 64.8915 39.1967 64.9349L39.2309 65.7341ZM59.8748 52.9988C59.8748 51.9322 60.6951 51.0872 61.7348 51.0643L61.7172 50.2645C60.2313 50.2972 59.0748 51.5087 59.0748 52.9988H59.8748ZM59.8748 53.0265V52.9988H59.0748V53.0265H59.8748ZM61.7996 54.847C60.753 54.8701 59.8973 54.0679 59.8747 53.0179L59.0749 53.0352C59.1072 54.5363 60.3381 55.6794 61.8172 55.6468L61.7996 54.847ZM63.6048 52.8962C63.6277 53.9641 62.8041 54.8267 61.8003 54.847L61.8165 55.6468C63.2835 55.6171 64.4366 54.3677 64.4046 52.879L63.6048 52.8962ZM61.726 51.0644C62.7363 51.0644 63.5593 51.8824 63.6051 52.9055L64.4043 52.8697C64.3403 51.4418 63.1866 50.2644 61.726 50.2644V51.0644Z" fill="url(#paint5_linear_62_3812)" mask="url(#path-7-inside-3_62_3812)"/>
</g>
<g opacity="0.5" filter="url(#filter4_b_62_3812)">
<path d="M27.9868 41.1104C27.9868 42.2909 28.9011 43.2244 30.1266 43.2244L69.7404 43.2244C70.9659 43.2244 71.8829 42.2909 71.8829 41.1104C71.8829 39.9024 70.9659 38.9965 69.7404 38.9965L30.1266 38.9965C28.9011 38.9965 27.9868 39.9024 27.9868 41.1104Z" fill="url(#paint6_linear_62_3812)" fill-opacity="0.5"/>
</g>
<defs>
<filter id="filter0_f_62_3812" x="0.56311" y="0.147949" width="74.1908" height="77.7703" filterUnits="userSpaceOnUse" color-interpolation-filters="sRGB">
<feFlood flood-opacity="0" result="BackgroundImageFix"/>
<feBlend mode="normal" in="SourceGraphic" in2="BackgroundImageFix" result="shape"/>
<feGaussianBlur stdDeviation="9.5" result="effect1_foregroundBlur_62_3812"/>
</filter>
<filter id="filter1_b_62_3812" x="0.434814" y="-0.125122" width="100.021" height="101.439" filterUnits="userSpaceOnUse" color-interpolation-filters="sRGB">
<feFlood flood-opacity="0" result="BackgroundImageFix"/>
<feGaussianBlur in="BackgroundImageFix" stdDeviation="12"/>
<feComposite in2="SourceAlpha" operator="in" result="effect1_backgroundBlur_62_3812"/>
<feBlend mode="normal" in="SourceGraphic" in2="effect1_backgroundBlur_62_3812" result="shape"/>
</filter>
<filter id="filter2_bd_62_3812" x="23.063" y="5.73438" width="54.7643" height="42.7554" filterUnits="userSpaceOnUse" color-interpolation-filters="sRGB">
<feFlood flood-opacity="0" result="BackgroundImageFix"/>
<feGaussianBlur in="BackgroundImageFix" stdDeviation="7.5"/>
<feComposite in2="SourceAlpha" operator="in" result="effect1_backgroundBlur_62_3812"/>
<feColorMatrix in="SourceAlpha" type="matrix" values="0 0 0 0 0 0 0 0 0 0 0 0 0 0 0 0 0 0 127 0" result="hardAlpha"/>
<feOffset dx="5" dy="5"/>
<feGaussianBlur stdDeviation="5"/>
<feColorMatrix type="matrix" values="0 0 0 0 1 0 0 0 0 0.537255 0 0 0 0 0.160784 0 0 0 0.2 0"/>
<feBlend mode="normal" in2="effect1_backgroundBlur_62_3812" result="effect2_dropShadow_62_3812"/>
<feBlend mode="normal" in="SourceGraphic" in2="effect2_dropShadow_62_3812" result="shape"/>
</filter>
<filter id="filter3_bd_62_3812" x="21.8528" y="35.6338" width="57.207" height="44.8395" filterUnits="userSpaceOnUse" color-interpolation-filters="sRGB">
<feFlood flood-opacity="0" result="BackgroundImageFix"/>
<feGaussianBlur in="BackgroundImageFix" stdDeviation="7.5"/>
<feComposite in2="SourceAlpha" operator="in" result="effect1_backgroundBlur_62_3812"/>
<feColorMatrix in="SourceAlpha" type="matrix" values="0 0 0 0 0 0 0 0 0 0 0 0 0 0 0 0 0 0 127 0" result="hardAlpha"/>
<feOffset dx="5" dy="5"/>
<feGaussianBlur stdDeviation="5"/>
<feColorMatrix type="matrix" values="0 0 0 0 1 0 0 0 0 0.52549 0 0 0 0 0.137255 0 0 0 0.5 0"/>
<feBlend mode="normal" in2="effect1_backgroundBlur_62_3812" result="effect2_dropShadow_62_3812"/>
<feBlend mode="normal" in="SourceGraphic" in2="effect2_dropShadow_62_3812" result="shape"/>
</filter>
<filter id="filter4_b_62_3812" x="12.9868" y="23.9965" width="73.8961" height="34.2279" filterUnits="userSpaceOnUse" color-interpolation-filters="sRGB">
<feFlood flood-opacity="0" result="BackgroundImageFix"/>
<feGaussianBlur in="BackgroundImageFix" stdDeviation="7.5"/>
<feComposite in2="SourceAlpha" operator="in" result="effect1_backgroundBlur_62_3812"/>
<feBlend mode="normal" in="SourceGraphic" in2="effect1_backgroundBlur_62_3812" result="shape"/>
</filter>
<linearGradient id="paint0_linear_62_3812" x1="49.5053" y1="15.9884" x2="29.6076" y2="63.4229" gradientUnits="userSpaceOnUse">
<stop stop-color="#FFB37F"/>
<stop offset="1" stop-color="#FF7B0D"/>
</linearGradient>
<linearGradient id="paint1_linear_62_3812" x1="33.3974" y1="30.8676" x2="66.3913" y2="70.6051" gradientUnits="userSpaceOnUse">
<stop stop-color="white" stop-opacity="0.25"/>
<stop offset="1" stop-color="white" stop-opacity="0"/>
</linearGradient>
<linearGradient id="paint2_linear_62_3812" x1="61.3342" y1="31.5103" x2="62.0779" y2="21.9298" gradientUnits="userSpaceOnUse">
<stop stop-color="white"/>
<stop offset="1" stop-color="white" stop-opacity="0.2"/>
</linearGradient>
<linearGradient id="paint3_linear_62_3812" x1="60.6537" y1="22.6631" x2="70.7228" y2="26.4398" gradientUnits="userSpaceOnUse">
<stop stop-color="white" stop-opacity="0.25"/>
<stop offset="1" stop-color="white" stop-opacity="0"/>
</linearGradient>
<linearGradient id="paint4_linear_62_3812" x1="62.1308" y1="53.3135" x2="16.258" y2="50.291" gradientUnits="userSpaceOnUse">
<stop stop-color="white"/>
<stop offset="1" stop-color="white" stop-opacity="0.2"/>
</linearGradient>
<linearGradient id="paint5_linear_62_3812" x1="41.1837" y1="52.3626" x2="48.3272" y2="68.5836" gradientUnits="userSpaceOnUse">
<stop stop-color="white" stop-opacity="0.25"/>
<stop offset="1" stop-color="white" stop-opacity="0"/>
</linearGradient>
<linearGradient id="paint6_linear_62_3812" x1="39.8345" y1="41.0508" x2="38.2607" y2="36.1212" gradientUnits="userSpaceOnUse">
<stop stop-color="white"/>
<stop offset="1" stop-color="white" stop-opacity="0.2"/>
</linearGradient>
</defs>
</svg>
