<svg width="79" height="72" viewBox="0 0 79 72" fill="none" xmlns="http://www.w3.org/2000/svg">
<path d="M52.9491 20.9978C67.5969 20.9978 78.2109 32.9406 78.2109 46.1935C78.2109 50.4264 76.9756 54.7853 74.8074 58.7662C74.404 59.4213 74.3536 60.2527 74.6309 61.0338L76.3201 66.6776C76.6983 68.0382 75.5385 69.046 74.2527 68.6429L69.16 67.1312C67.7734 66.6776 66.6893 67.2571 65.401 68.0382C61.7202 70.205 57.1342 71.3137 52.9995 71.3137C40.4947 71.3137 27.7882 61.6637 27.7882 46.1179C27.7882 32.7138 38.6291 20.9978 52.9491 20.9978Z" fill="url(#paint0_linear_62_3804)"/>
<g filter="url(#filter0_b_62_3804)">
<mask id="path-2-outside-1_62_3804" maskUnits="userSpaceOnUse" x="0.789001" y="0.313721" width="67" height="67" fill="black">
<rect fill="white" x="0.789001" y="0.313721" width="67" height="67"/>
<path d="M34.0241 1.31372C15.3329 1.31372 1.789 16.5532 1.789 33.4645C1.789 38.8658 3.36537 44.4279 6.13205 49.5077C6.64679 50.3436 6.71113 51.4046 6.35725 52.4013L4.20181 59.6031C3.71925 61.3392 5.1991 62.6252 6.83981 62.1108L13.3383 60.1818C15.1077 59.6031 16.491 60.3425 18.135 61.3392C22.8319 64.1042 28.6838 65.5188 33.9598 65.5188C49.9165 65.5188 66.1305 53.2051 66.1305 33.368C66.1305 16.2638 52.2971 1.31372 34.0241 1.31372Z"/>
</mask>
<path d="M34.0241 1.31372C15.3329 1.31372 1.789 16.5532 1.789 33.4645C1.789 38.8658 3.36537 44.4279 6.13205 49.5077C6.64679 50.3436 6.71113 51.4046 6.35725 52.4013L4.20181 59.6031C3.71925 61.3392 5.1991 62.6252 6.83981 62.1108L13.3383 60.1818C15.1077 59.6031 16.491 60.3425 18.135 61.3392C22.8319 64.1042 28.6838 65.5188 33.9598 65.5188C49.9165 65.5188 66.1305 53.2051 66.1305 33.368C66.1305 16.2638 52.2971 1.31372 34.0241 1.31372Z" fill="#FFCBB9" fill-opacity="0.35"/>
<path d="M34.0241 2.31372C34.5764 2.31372 35.0241 1.86601 35.0241 1.31372C35.0241 0.761436 34.5764 0.313721 34.0241 0.313721V2.31372ZM6.13205 49.5077L5.25386 49.986C5.26234 50.0016 5.27124 50.0169 5.28054 50.032L6.13205 49.5077ZM6.35725 52.4013L5.41489 52.0667C5.40927 52.0825 5.40405 52.0985 5.39924 52.1146L6.35725 52.4013ZM4.20181 59.6031L3.2438 59.3163C3.24191 59.3226 3.24009 59.3289 3.23833 59.3353L4.20181 59.6031ZM6.83981 62.1108L6.55524 61.1522C6.55036 61.1536 6.54549 61.1551 6.54064 61.1566L6.83981 62.1108ZM13.3383 60.1818L13.6229 61.1404C13.6317 61.1378 13.6404 61.1351 13.6492 61.1322L13.3383 60.1818ZM18.135 61.3392L17.6165 62.1944L17.6277 62.201L18.135 61.3392ZM34.0241 0.313721C33.4718 0.313721 33.0241 0.761436 33.0241 1.31372C33.0241 1.86601 33.4718 2.31372 34.0241 2.31372V0.313721ZM34.0241 0.313721C14.7483 0.313721 0.789001 16.0338 0.789001 33.4645H2.789C2.789 17.0726 15.9175 2.31372 34.0241 2.31372V0.313721ZM0.789001 33.4645C0.789001 39.0569 2.41955 44.782 5.25386 49.986L7.01025 49.0294C4.31119 44.0737 2.789 38.6747 2.789 33.4645H0.789001ZM5.28054 50.032C5.61235 50.5709 5.68398 51.3088 5.41489 52.0667L7.29961 52.7359C7.73828 51.5004 7.68122 50.1164 6.98357 48.9834L5.28054 50.032ZM5.39924 52.1146L3.2438 59.3163L5.15982 59.8898L7.31526 52.688L5.39924 52.1146ZM3.23833 59.3353C2.9022 60.5446 3.2411 61.6939 4.04701 62.4363C4.8416 63.1684 5.99975 63.4222 7.13898 63.065L6.54064 61.1566C6.03916 61.3138 5.63703 61.1818 5.40216 60.9654C5.1786 60.7595 5.01885 60.3977 5.16528 59.8708L3.23833 59.3353ZM7.12438 63.0695L13.6229 61.1404L13.0537 59.2231L6.55524 61.1522L7.12438 63.0695ZM13.6492 61.1322C14.9381 60.7107 15.9474 61.1823 17.6165 62.1943L18.6534 60.4841C17.0347 59.5027 15.2773 58.4954 13.0274 59.2313L13.6492 61.1322ZM17.6277 62.201C22.494 65.0656 28.5244 66.5188 33.9598 66.5188V64.5188C28.8431 64.5188 23.1698 63.1427 18.6423 60.4774L17.6277 62.201ZM33.9598 66.5188C50.3875 66.5188 67.1305 53.8352 67.1305 33.368H65.1305C65.1305 52.5749 49.4454 64.5188 33.9598 64.5188V66.5188ZM67.1305 33.368C67.1305 15.7333 52.8708 0.313721 34.0241 0.313721V2.31372C51.7233 2.31372 65.1305 16.7944 65.1305 33.368H67.1305Z" fill="url(#paint1_linear_62_3804)" mask="url(#path-2-outside-1_62_3804)"/>
</g>
<g filter="url(#filter1_bd_62_3804)">
<mask id="path-4-inside-2_62_3804" fill="white">
<path fill-rule="evenodd" clip-rule="evenodd" d="M33.8968 37.6115C31.6127 37.5793 29.779 35.7467 29.779 33.464C29.779 31.2135 31.6449 29.3488 33.8968 29.3809C36.1809 29.3809 38.0147 31.2135 38.0147 33.4962C38.0147 35.7467 36.1809 37.6115 33.8968 37.6115ZM19.0649 37.6117C16.813 37.6117 14.9471 35.747 14.9471 33.4964C14.9471 31.2137 16.7808 29.3811 19.0649 29.3811C21.3491 29.3811 23.1828 31.2137 23.1828 33.4964C23.1828 35.747 21.3491 37.5795 19.0649 37.6117ZM44.6092 33.4962C44.6092 35.7467 46.4429 37.6115 48.7271 37.6115C51.0112 37.6115 52.8449 35.7467 52.8449 33.4962C52.8449 31.2135 51.0112 29.3809 48.7271 29.3809C46.4429 29.3809 44.6092 31.2135 44.6092 33.4962Z"/>
</mask>
<path fill-rule="evenodd" clip-rule="evenodd" d="M33.8968 37.6115C31.6127 37.5793 29.779 35.7467 29.779 33.464C29.779 31.2135 31.6449 29.3488 33.8968 29.3809C36.1809 29.3809 38.0147 31.2135 38.0147 33.4962C38.0147 35.7467 36.1809 37.6115 33.8968 37.6115ZM19.0649 37.6117C16.813 37.6117 14.9471 35.747 14.9471 33.4964C14.9471 31.2137 16.7808 29.3811 19.0649 29.3811C21.3491 29.3811 23.1828 31.2137 23.1828 33.4964C23.1828 35.747 21.3491 37.5795 19.0649 37.6117ZM44.6092 33.4962C44.6092 35.7467 46.4429 37.6115 48.7271 37.6115C51.0112 37.6115 52.8449 35.7467 52.8449 33.4962C52.8449 31.2135 51.0112 29.3809 48.7271 29.3809C46.4429 29.3809 44.6092 31.2135 44.6092 33.4962Z" fill="url(#paint2_linear_62_3804)"/>
<path d="M33.8968 37.6115L33.8912 38.0115H33.8968V37.6115ZM33.8968 29.3809L33.8911 29.7809H33.8968V29.3809ZM19.0649 37.6117V38.0117L19.0706 38.0117L19.0649 37.6117ZM29.379 33.464C29.379 35.9689 31.3919 37.9763 33.8912 38.0115L33.9025 37.2115C31.8335 37.1824 30.179 35.5246 30.179 33.464H29.379ZM33.9025 28.9809C31.4243 28.9456 29.379 30.9935 29.379 33.464H30.179C30.179 31.4335 31.8654 29.7519 33.8911 29.7809L33.9025 28.9809ZM38.4147 33.4962C38.4147 30.9923 36.4016 28.9809 33.8968 28.9809V29.7809C35.9603 29.7809 37.6147 31.4346 37.6147 33.4962H38.4147ZM33.8968 38.0115C36.4037 38.0115 38.4147 35.9659 38.4147 33.4962H37.6147C37.6147 35.5276 35.9582 37.2115 33.8968 37.2115V38.0115ZM14.5471 33.4964C14.5471 35.9681 16.5923 38.0117 19.0649 38.0117V37.2117C17.0337 37.2117 15.3471 35.5258 15.3471 33.4964H14.5471ZM19.0649 28.9811C16.5601 28.9811 14.5471 30.9925 14.5471 33.4964H15.3471C15.3471 31.4348 17.0015 29.7811 19.0649 29.7811V28.9811ZM23.5828 33.4964C23.5828 30.9925 21.5697 28.9811 19.0649 28.9811V29.7811C21.1284 29.7811 22.7828 31.4348 22.7828 33.4964H23.5828ZM19.0706 38.0117C21.5679 37.9765 23.5828 35.9712 23.5828 33.4964H22.7828C22.7828 35.5228 21.1303 37.1826 19.0593 37.2117L19.0706 38.0117ZM48.7271 37.2115C46.6656 37.2115 45.0092 35.5276 45.0092 33.4962H44.2092C44.2092 35.9659 46.2202 38.0115 48.7271 38.0115V37.2115ZM52.4449 33.4962C52.4449 35.5276 50.7885 37.2115 48.7271 37.2115V38.0115C51.2339 38.0115 53.2449 35.9659 53.2449 33.4962H52.4449ZM48.7271 29.7809C50.7905 29.7809 52.4449 31.4346 52.4449 33.4962H53.2449C53.2449 30.9923 51.2319 28.9809 48.7271 28.9809V29.7809ZM45.0092 33.4962C45.0092 31.4346 46.6636 29.7809 48.7271 29.7809V28.9809C46.2222 28.9809 44.2092 30.9923 44.2092 33.4962H45.0092Z" fill="url(#paint3_linear_62_3804)" mask="url(#path-4-inside-2_62_3804)"/>
</g>
<defs>
<filter id="filter0_b_62_3804" x="-23.211" y="-23.6863" width="114.341" height="114.205" filterUnits="userSpaceOnUse" color-interpolation-filters="sRGB">
<feFlood flood-opacity="0" result="BackgroundImageFix"/>
<feGaussianBlur in="BackgroundImageFix" stdDeviation="12"/>
<feComposite in2="SourceAlpha" operator="in" result="effect1_backgroundBlur_62_3804"/>
<feBlend mode="normal" in="SourceGraphic" in2="effect1_backgroundBlur_62_3804" result="shape"/>
</filter>
<filter id="filter1_bd_62_3804" x="-0.0529175" y="14.3805" width="67.8978" height="38.2312" filterUnits="userSpaceOnUse" color-interpolation-filters="sRGB">
<feFlood flood-opacity="0" result="BackgroundImageFix"/>
<feGaussianBlur in="BackgroundImageFix" stdDeviation="7.5"/>
<feComposite in2="SourceAlpha" operator="in" result="effect1_backgroundBlur_62_3804"/>
<feColorMatrix in="SourceAlpha" type="matrix" values="0 0 0 0 0 0 0 0 0 0 0 0 0 0 0 0 0 0 127 0" result="hardAlpha"/>
<feOffset dx="5" dy="5"/>
<feGaussianBlur stdDeviation="5"/>
<feColorMatrix type="matrix" values="0 0 0 0 0.992157 0 0 0 0 0.337255 0 0 0 0 0.360784 0 0 0 1 0"/>
<feBlend mode="normal" in2="effect1_backgroundBlur_62_3804" result="effect2_dropShadow_62_3804"/>
<feBlend mode="normal" in="SourceGraphic" in2="effect2_dropShadow_62_3804" result="shape"/>
</filter>
<linearGradient id="paint0_linear_62_3804" x1="52.9995" y1="20.9978" x2="52.9995" y2="71.3137" gradientUnits="userSpaceOnUse">
<stop stop-color="#FB8185"/>
<stop offset="1" stop-color="#FD5056"/>
</linearGradient>
<linearGradient id="paint1_linear_62_3804" x1="12.0311" y1="8.79369" x2="52.9687" y2="59.6036" gradientUnits="userSpaceOnUse">
<stop stop-color="white" stop-opacity="0.25"/>
<stop offset="1" stop-color="white" stop-opacity="0"/>
</linearGradient>
<linearGradient id="paint2_linear_62_3804" x1="50.158" y1="30.8669" x2="8.82985" y2="37.0709" gradientUnits="userSpaceOnUse">
<stop stop-color="white"/>
<stop offset="1" stop-color="white" stop-opacity="0.2"/>
</linearGradient>
<linearGradient id="paint3_linear_62_3804" x1="20.9798" y1="30.3394" x2="22.8075" y2="40.7614" gradientUnits="userSpaceOnUse">
<stop stop-color="white" stop-opacity="0.25"/>
<stop offset="1" stop-color="white" stop-opacity="0"/>
</linearGradient>
</defs>
</svg>
