<svg width="82" height="74" viewBox="0 0 82 74" fill="none" xmlns="http://www.w3.org/2000/svg">
<path d="M26.7942 21.8851C15.9887 21.8851 7.05554 30.5468 7.05554 41.2633C7.05554 46.6634 9.0123 51.6768 12.2392 55.9261C15.766 60.6134 20.1506 64.6973 25.114 67.9029C26.3536 68.6997 27.373 68.6438 28.5026 67.9029C33.4378 64.6973 37.8224 60.6134 41.3797 55.9261C44.6042 51.6768 46.5633 46.6634 46.5633 41.2633C46.5633 30.5468 37.6302 21.8851 26.7942 21.8851Z" fill="#4141A5"/>
<g opacity="0.5" filter="url(#filter0_f_62_3808)">
<path d="M26.8424 32.7634C20.996 32.7634 16.1627 37.3842 16.1627 43.1012C16.1627 45.9821 17.2214 48.6566 18.9673 50.9235C20.8756 53.4241 23.2478 55.6027 25.9333 57.3129C26.604 57.7379 27.1555 57.7081 27.7667 57.3129C30.4369 55.6027 32.8092 53.4241 34.7339 50.9235C36.4785 48.6566 37.5385 45.9821 37.5385 43.1012C37.5385 37.3842 32.7052 32.7634 26.8424 32.7634Z" fill="#6666D9"/>
</g>
<g filter="url(#filter1_b_62_3808)">
<path d="M51.2449 1.31372C35.0115 1.31372 21.5911 14.3263 21.5911 30.4259C21.5911 38.5386 24.5307 46.0704 29.3786 52.4542C34.677 59.496 41.264 65.6314 48.7206 70.4472C50.583 71.6442 52.1144 71.5602 53.8114 70.4472C61.2257 65.6314 67.8127 59.496 73.1569 52.4542C78.0012 46.0704 80.9444 38.5386 80.9444 30.4259C80.9444 14.3263 67.524 1.31372 51.2449 1.31372Z" fill="#4141A5" fill-opacity="0.3"/>
<path d="M48.4493 70.8672L48.4503 70.8678C49.4386 71.503 50.3823 71.8255 51.3344 71.8134C52.2853 71.8013 53.1844 71.4563 54.085 70.8657C61.5475 66.0183 68.1766 59.8436 73.5552 52.7565L73.5552 52.7565C78.4551 46.2994 81.4444 38.6638 81.4444 30.4259C81.4444 14.0393 67.7891 0.813721 51.2449 0.813721C34.7459 0.813721 21.0911 14.0398 21.0911 30.4259C21.0911 38.6633 24.0765 46.2986 28.9796 52.7556C34.3134 59.8442 40.9437 66.0197 48.4493 70.8672Z" stroke="url(#paint0_linear_62_3808)" stroke-linecap="round" stroke-linejoin="round"/>
</g>
<g filter="url(#filter2_bd_62_3808)">
<mask id="path-5-inside-1_62_3808" fill="white">
<path d="M51.0298 40.9652C45.6469 40.9652 41.2567 36.7233 41.2567 31.33C41.2567 25.9786 45.6469 21.5303 51.0298 21.5303C56.4163 21.5303 60.8487 25.9786 60.8487 31.33C60.8487 36.7233 56.4163 40.9652 51.0298 40.9652Z"/>
</mask>
<path d="M51.0298 40.9652C45.6469 40.9652 41.2567 36.7233 41.2567 31.33C41.2567 25.9786 45.6469 21.5303 51.0298 21.5303C56.4163 21.5303 60.8487 25.9786 60.8487 31.33C60.8487 36.7233 56.4163 40.9652 51.0298 40.9652Z" fill="url(#paint1_linear_62_3808)"/>
<path d="M51.0298 40.7652C45.7535 40.7652 41.4567 36.609 41.4567 31.33H41.0567C41.0567 36.8376 45.5403 41.1652 51.0298 41.1652V40.7652ZM41.4567 31.33C41.4567 26.088 45.7585 21.7303 51.0298 21.7303V21.3303C45.5353 21.3303 41.0567 25.8693 41.0567 31.33H41.4567ZM51.0298 21.7303C56.3059 21.7303 60.6487 26.0891 60.6487 31.33H61.0487C61.0487 25.8681 56.5267 21.3303 51.0298 21.3303V21.7303ZM60.6487 31.33C60.6487 36.6079 56.3109 40.7652 51.0298 40.7652V41.1652C56.5217 41.1652 61.0487 36.8388 61.0487 31.33H60.6487Z" fill="url(#paint2_linear_62_3808)" fill-opacity="0.5" mask="url(#path-5-inside-1_62_3808)"/>
</g>
<defs>
<filter id="filter0_f_62_3808" x="0.16272" y="16.7634" width="53.3757" height="56.8572" filterUnits="userSpaceOnUse" color-interpolation-filters="sRGB">
<feFlood flood-opacity="0" result="BackgroundImageFix"/>
<feBlend mode="normal" in="SourceGraphic" in2="BackgroundImageFix" result="shape"/>
<feGaussianBlur stdDeviation="8" result="effect1_foregroundBlur_62_3808"/>
</filter>
<filter id="filter1_b_62_3808" x="-3.40894" y="-23.6863" width="109.353" height="120" filterUnits="userSpaceOnUse" color-interpolation-filters="sRGB">
<feFlood flood-opacity="0" result="BackgroundImageFix"/>
<feGaussianBlur in="BackgroundImageFix" stdDeviation="12"/>
<feComposite in2="SourceAlpha" operator="in" result="effect1_backgroundBlur_62_3808"/>
<feBlend mode="normal" in="SourceGraphic" in2="effect1_backgroundBlur_62_3808" result="shape"/>
</filter>
<filter id="filter2_bd_62_3808" x="26.2567" y="6.53027" width="49.592" height="49.4349" filterUnits="userSpaceOnUse" color-interpolation-filters="sRGB">
<feFlood flood-opacity="0" result="BackgroundImageFix"/>
<feGaussianBlur in="BackgroundImageFix" stdDeviation="7.5"/>
<feComposite in2="SourceAlpha" operator="in" result="effect1_backgroundBlur_62_3808"/>
<feColorMatrix in="SourceAlpha" type="matrix" values="0 0 0 0 0 0 0 0 0 0 0 0 0 0 0 0 0 0 127 0" result="hardAlpha"/>
<feOffset dx="5" dy="5"/>
<feGaussianBlur stdDeviation="5"/>
<feColorMatrix type="matrix" values="0 0 0 0 0.101961 0 0 0 0 0.0352941 0 0 0 0 0.247059 0 0 0 0.3 0"/>
<feBlend mode="normal" in2="effect1_backgroundBlur_62_3808" result="effect2_dropShadow_62_3808"/>
<feBlend mode="normal" in="SourceGraphic" in2="effect2_dropShadow_62_3808" result="shape"/>
</filter>
<linearGradient id="paint0_linear_62_3808" x1="31.0392" y1="9.46881" x2="76.6627" y2="57.3804" gradientUnits="userSpaceOnUse">
<stop stop-color="white" stop-opacity="0.25"/>
<stop offset="1" stop-color="white" stop-opacity="0"/>
</linearGradient>
<linearGradient id="paint1_linear_62_3808" x1="59.4597" y1="25.0398" x2="37.6364" y2="25.7571" gradientUnits="userSpaceOnUse">
<stop stop-color="white"/>
<stop offset="1" stop-color="white" stop-opacity="0.2"/>
</linearGradient>
<linearGradient id="paint2_linear_62_3808" x1="43.3672" y1="28.0498" x2="60.0035" y2="28.1423" gradientUnits="userSpaceOnUse">
<stop stop-color="white"/>
<stop offset="1" stop-color="white" stop-opacity="0"/>
</linearGradient>
</defs>
</svg>
